<svg width="124" height="18" viewBox="0 0 124 18" fill="none" xmlns="http://www.w3.org/2000/svg">
<path d="M0.567383 2.32715H5.53538C6.01538 2.32715 6.48938 2.38715 6.95738 2.50715C7.42538 2.61515 7.83938 2.80115 8.19938 3.06515C8.57138 3.31715 8.87138 3.64715 9.09938 4.05515C9.32738 4.46315 9.44138 4.95515 9.44138 5.53115C9.44138 6.25115 9.23738 6.84515 8.82938 7.31315C8.42138 7.78115 7.88738 8.11715 7.22738 8.32115V8.35715C7.62338 8.40515 7.98938 8.51915 8.32538 8.69915C8.67338 8.86715 8.96738 9.08915 9.20738 9.36515C9.44738 9.62915 9.63338 9.94115 9.76538 10.3011C9.90938 10.6491 9.98138 11.0271 9.98138 11.4351C9.98138 12.1311 9.84338 12.7131 9.56738 13.1811C9.29138 13.6371 8.92538 14.0091 8.46938 14.2971C8.02538 14.5731 7.50938 14.7711 6.92138 14.8911C6.34538 15.0111 5.75738 15.0711 5.15738 15.0711H0.567383V2.32715ZM2.83538 7.51115H4.90538C5.66138 7.51115 6.22538 7.36715 6.59738 7.07915C6.98138 6.77915 7.17338 6.38915 7.17338 5.90915C7.17338 5.35715 6.97538 4.94915 6.57938 4.68515C6.19538 4.40915 5.57138 4.27115 4.70738 4.27115H2.83538V7.51115ZM2.83538 13.1271H4.92338C5.21138 13.1271 5.51738 13.1091 5.84138 13.0731C6.17738 13.0371 6.48338 12.9531 6.75938 12.8211C7.03538 12.6891 7.26338 12.5031 7.44338 12.2631C7.62338 12.0111 7.71338 11.6751 7.71338 11.2551C7.71338 10.5831 7.49138 10.1151 7.04738 9.85115C6.61538 9.58715 5.93738 9.45515 5.01338 9.45515H2.83538V13.1271Z" fill="white"/>
<path d="M18.0533 9.61715L13.2653 2.32715H16.1093L19.2413 7.40315L22.4093 2.32715H25.1093L20.3213 9.61715V15.0711H18.0533V9.61715Z" fill="white"/>
<path d="M46.512 0.702985L46.824 0.246985H38.856V0.510985L44.28 1.11099V8.79099C44.256 12.367 43.488 15.055 41.928 16.111C41.496 16.423 40.44 17.167 39.192 16.447C37.44 15.559 36.552 12.343 36 11.455V15.847C36.408 16.063 37.8 16.687 38.784 17.023C39.432 17.263 40.032 17.335 40.536 17.311C42.384 17.359 43.944 15.919 43.944 15.919C45.432 14.383 46.512 11.983 46.512 8.79099V0.702985Z" fill="white"/>
<path d="M65.1261 3.03099C62.1501 -0.617015 56.5101 -1.02501 52.5981 2.09499C48.6861 5.21499 47.9421 10.687 50.9421 14.311C53.9421 17.959 59.5341 18.367 63.4461 15.271C67.3581 12.151 68.1021 6.67899 65.1261 3.03099ZM61.9821 13.495C58.1421 16.543 53.3181 16.639 51.1101 13.975C48.9021 11.287 49.8621 6.41499 53.9421 3.65499C57.9741 0.894986 62.7501 0.486985 64.9581 3.17498C67.1661 5.83899 65.8221 10.447 61.9821 13.495Z" fill="white"/>
<path d="M85.8664 9.15099V0.270985H84.3784V9.15099C84.2824 13.615 81.2104 16.999 77.4424 16.999C73.6744 16.999 71.4424 13.615 71.3464 9.15099V0.270985H68.8744V9.15099C69.0184 13.687 72.3544 17.311 77.4424 17.335C82.5304 17.311 85.8664 13.687 85.8664 9.15099Z" fill="white"/>
<path d="M103.176 4.54299C103.176 2.11899 100.896 0.270985 97.1762 0.270985H88.9922V17.071H91.4402V1.01499L96.5762 0.990987C98.9282 0.990987 100.488 1.56699 100.488 4.61498C100.488 7.68699 99.6002 8.09499 97.1522 8.09499L93.8402 8.11899V8.59899C94.2242 12.151 97.4402 15.007 99.8402 15.535L101.76 15.967C102.648 16.159 103.296 16.423 103.632 17.071H104.136C104.112 14.935 102.912 13.351 99.6002 12.607L98.2802 12.319C96.5522 11.935 95.3522 10.567 95.1362 8.69499H98.2082C101.088 8.67099 103.176 6.65499 103.176 4.54299Z" fill="white"/>
<path d="M123.493 0.270985H121.549L121.669 13.903L109.501 0.270985H105.877L107.029 1.35099V17.047H107.941V2.40699L121.381 17.071H123.493V0.270985Z" fill="white"/>
</svg>
