<svg width="124" height="19" viewBox="0 0 124 19" fill="none" xmlns="http://www.w3.org/2000/svg">
<path d="M0.567383 3.2561H5.53538C6.01538 3.2561 6.48938 3.3161 6.95738 3.4361C7.42538 3.5441 7.83938 3.7301 8.19938 3.9941C8.57138 4.2461 8.87138 4.5761 9.09938 4.9841C9.32738 5.3921 9.44138 5.8841 9.44138 6.4601C9.44138 7.1801 9.23738 7.7741 8.82938 8.2421C8.42138 8.7101 7.88738 9.0461 7.22738 9.2501V9.2861C7.62338 9.3341 7.98938 9.4481 8.32538 9.6281C8.67338 9.7961 8.96738 10.0181 9.20738 10.2941C9.44738 10.5581 9.63338 10.8701 9.76538 11.2301C9.90938 11.5781 9.98138 11.9561 9.98138 12.3641C9.98138 13.0601 9.84338 13.6421 9.56738 14.1101C9.29138 14.5661 8.92538 14.9381 8.46938 15.2261C8.02538 15.5021 7.50938 15.7001 6.92138 15.8201C6.34538 15.9401 5.75738 16.0001 5.15738 16.0001H0.567383V3.2561ZM2.83538 8.4401H4.90538C5.66138 8.4401 6.22538 8.2961 6.59738 8.0081C6.98138 7.7081 7.17338 7.3181 7.17338 6.8381C7.17338 6.2861 6.97538 5.8781 6.57938 5.6141C6.19538 5.3381 5.57138 5.2001 4.70738 5.2001H2.83538V8.4401ZM2.83538 14.0561H4.92338C5.21138 14.0561 5.51738 14.0381 5.84138 14.0021C6.17738 13.9661 6.48338 13.8821 6.75938 13.7501C7.03538 13.6181 7.26338 13.4321 7.44338 13.1921C7.62338 12.9401 7.71338 12.6041 7.71338 12.1841C7.71338 11.5121 7.49138 11.0441 7.04738 10.7801C6.61538 10.5161 5.93738 10.3841 5.01338 10.3841H2.83538V14.0561Z" fill="#1C1C1C"/>
<path d="M18.0533 10.5461L13.2653 3.2561H16.1093L19.2413 8.3321L22.4093 3.2561H25.1093L20.3213 10.5461V16.0001H18.0533V10.5461Z" fill="#1C1C1C"/>
<path d="M46.512 1.63194L46.824 1.17594H38.856V1.43994L44.28 2.03994V9.71994C44.256 13.2959 43.488 15.9839 41.928 17.0399C41.496 17.3519 40.44 18.0959 39.192 17.3759C37.44 16.4879 36.552 13.2719 36 12.3839V16.7759C36.408 16.9919 37.8 17.6159 38.784 17.9519C39.432 18.1919 40.032 18.2639 40.536 18.2399C42.384 18.2879 43.944 16.8479 43.944 16.8479C45.432 15.3119 46.512 12.9119 46.512 9.71994V1.63194Z" fill="#1C1C1C"/>
<path d="M65.1261 3.95994C62.1501 0.31194 56.5101 -0.0960581 52.5981 3.02394C48.6861 6.14394 47.9421 11.6159 50.9421 15.2399C53.9421 18.8879 59.5341 19.2959 63.4461 16.1999C67.3581 13.0799 68.1021 7.60794 65.1261 3.95994ZM61.9821 14.4239C58.1421 17.4719 53.3181 17.5679 51.1101 14.9039C48.9021 12.2159 49.8621 7.34394 53.9421 4.58394C57.9741 1.82394 62.7501 1.41594 64.9581 4.10394C67.1661 6.76794 65.8221 11.3759 61.9821 14.4239Z" fill="#1C1C1C"/>
<path d="M85.8664 10.0799V1.19994H84.3784V10.0799C84.2824 14.5439 81.2104 17.9279 77.4424 17.9279C73.6744 17.9279 71.4424 14.5439 71.3464 10.0799V1.19994H68.8744V10.0799C69.0184 14.6159 72.3544 18.2399 77.4424 18.2639C82.5304 18.2399 85.8664 14.6159 85.8664 10.0799Z" fill="#1C1C1C"/>
<path d="M103.176 5.47194C103.176 3.04794 100.896 1.19994 97.1762 1.19994H88.9922V17.9999H91.4402V1.94394L96.5762 1.91994C98.9282 1.91994 100.488 2.49594 100.488 5.54394C100.488 8.61594 99.6002 9.02394 97.1522 9.02394L93.8402 9.04794V9.52794C94.2242 13.0799 97.4402 15.9359 99.8402 16.4639L101.76 16.8959C102.648 17.0879 103.296 17.3519 103.632 17.9999H104.136C104.112 15.8639 102.912 14.2799 99.6002 13.5359L98.2802 13.2479C96.5522 12.8639 95.3522 11.4959 95.1362 9.62394H98.2082C101.088 9.59994 103.176 7.58394 103.176 5.47194Z" fill="#1C1C1C"/>
<path d="M123.493 1.19994H121.549L121.669 14.8319L109.501 1.19994H105.877L107.029 2.27994V17.9759H107.941V3.33594L121.381 17.9999H123.493V1.19994Z" fill="#1C1C1C"/>
</svg>
