<?xml version="1.0" encoding="UTF-8" standalone="no"?>
<!DOCTYPE svg PUBLIC "-//W3C//DTD SVG 1.1//EN" "http://www.w3.org/Graphics/SVG/1.1/DTD/svg11.dtd">
<svg width="100%" height="100%" viewBox="0 0 24 24" version="1.1" xmlns="http://www.w3.org/2000/svg" xmlns:xlink="http://www.w3.org/1999/xlink" xml:space="preserve" xmlns:serif="http://www.serif.com/" style="fill-rule:evenodd;clip-rule:evenodd;stroke-linejoin:round;stroke-miterlimit:2;">
    <path d="M7,18C5.9,18 5.01,18.9 5.01,20C5.01,21.1 5.9,22 7,22C8.1,22 9,21.1 9,20C9,18.9 8.1,18 7,18ZM1,2L1,4L3,4L6.6,11.59L5.25,14.04C5.09,14.32 5,14.65 5,15C5,16.1 5.9,17 7,17L19,17L19,15L7.42,15C7.28,15 7.17,14.89 7.17,14.75L7.2,14.63L8.1,13L15.55,13C16.3,13 16.96,12.59 17.3,11.97L20.88,5.48C20.96,5.34 21,5.17 21,5C21,4.45 20.55,4 20,4L5.21,4L4.27,2L1,2ZM17,18C15.9,18 15.01,18.9 15.01,20C15.01,21.1 15.9,22 17,22C18.1,22 19,21.1 19,20C19,18.9 18.1,18 17,18Z" style="fill:rgb(233,128,93);fill-rule:nonzero;"/>
    <rect x="0" y="0" width="24" height="24" style="fill:none;fill-rule:nonzero;"/>
</svg>
