<?xml version="1.0" encoding="UTF-8" standalone="no"?>
<!DOCTYPE svg PUBLIC "-//W3C//DTD SVG 1.1//EN" "http://www.w3.org/Graphics/SVG/1.1/DTD/svg11.dtd">
<svg width="100%" height="100%" viewBox="0 0 24 24" version="1.1" xmlns="http://www.w3.org/2000/svg" xmlns:xlink="http://www.w3.org/1999/xlink" xml:space="preserve" xmlns:serif="http://www.serif.com/" style="fill-rule:evenodd;clip-rule:evenodd;stroke-linejoin:round;stroke-miterlimit:2;">
    <path d="M19.55,14.56C19.52,14.811 19.303,15.002 19.05,15L17,15C16.726,15 16.5,15.226 16.5,15.5L16.5,23.5C16.5,23.774 16.726,24 17,24L23,24C23.549,24 24,23.549 24,23L24,1C24,0.451 23.549,0 23,0L1,0C0.451,0 0,0.451 0,1L0,23C0,23.549 0.451,24 1,24L12,24C12.274,24 12.5,23.774 12.5,23.5L12.5,15.5C12.5,15.226 12.274,15 12,15L10,15C9.726,15 9.5,14.774 9.5,14.5L9.5,11.5C9.5,11.226 9.726,11 10,11L12,11C12.274,11 12.5,10.774 12.5,10.5L12.5,9.19C12.5,6.069 15.069,3.5 18.19,3.5L19.5,3.5C19.774,3.5 20,3.726 20,4L20,7C20,7.274 19.774,7.5 19.5,7.5L18.19,7.5C17.263,7.5 16.5,8.263 16.5,9.19L16.5,10.5C16.5,10.774 16.726,11 17,11L19.43,11C19.431,11 19.432,11 19.434,11C19.708,11 19.934,11.226 19.934,11.5C19.934,11.52 19.932,11.54 19.93,11.56L19.55,14.56Z" style="fill:white;fill-rule:nonzero;"/>
</svg>
