<?xml version="1.0" encoding="UTF-8" standalone="no"?>
<!DOCTYPE svg PUBLIC "-//W3C//DTD SVG 1.1//EN" "http://www.w3.org/Graphics/SVG/1.1/DTD/svg11.dtd">
<svg width="100%" height="100%" viewBox="0 0 24 24" version="1.1" xmlns="http://www.w3.org/2000/svg" xmlns:xlink="http://www.w3.org/1999/xlink" xml:space="preserve" xmlns:serif="http://www.serif.com/" style="fill-rule:evenodd;clip-rule:evenodd;stroke-linejoin:round;stroke-miterlimit:2;">
    <path d="M23.32,6.44C23.434,6.345 23.5,6.204 23.5,6.055C23.5,5.826 23.343,5.625 23.12,5.57L22.33,5.37C22.108,5.314 21.951,5.114 21.951,4.885C21.951,4.811 21.968,4.737 22,4.67L22.44,3.78C22.473,3.712 22.49,3.638 22.49,3.563C22.49,3.289 22.264,3.063 21.99,3.063C21.946,3.063 21.902,3.069 21.86,3.08L19.86,3.64C19.709,3.684 19.546,3.654 19.42,3.56C18.555,2.911 17.502,2.56 16.42,2.56C13.677,2.56 11.42,4.817 11.42,7.56L11.42,7.92C11.421,8.047 11.326,8.155 11.2,8.17C8.39,8.5 5.7,7.07 2.8,3.73C2.672,3.589 2.474,3.531 2.29,3.58C2.124,3.656 2.013,3.818 2,4C1.6,5.645 1.762,7.378 2.46,8.92C2.478,8.955 2.487,8.994 2.487,9.033C2.487,9.17 2.374,9.283 2.237,9.283C2.225,9.283 2.212,9.282 2.2,9.28L1.08,9.06C1.054,9.056 1.027,9.054 1.001,9.054C0.726,9.054 0.501,9.279 0.501,9.554C0.501,9.586 0.504,9.618 0.51,9.65C0.685,11.204 1.558,12.596 2.88,13.43C2.966,13.472 3.021,13.559 3.021,13.655C3.021,13.751 2.966,13.838 2.88,13.88L2.35,14.09C2.161,14.166 2.036,14.35 2.036,14.554C2.036,14.633 2.055,14.71 2.09,14.78C2.684,16.081 3.882,17.009 5.29,17.26C5.389,17.296 5.455,17.39 5.455,17.495C5.455,17.6 5.389,17.694 5.29,17.73C3.93,18.292 2.471,18.575 1,18.56C0.967,18.553 0.934,18.55 0.9,18.55C0.62,18.55 0.39,18.78 0.39,19.06C0.39,19.302 0.563,19.513 0.8,19.56C3.347,20.768 6.121,21.426 8.94,21.49C11.419,21.528 13.855,20.832 15.94,19.49C19.42,17.167 21.511,13.245 21.5,9.06L21.5,8.19C21.501,8.043 21.567,7.904 21.68,7.81L23.32,6.44Z" style="fill:white;fill-rule:nonzero;"/>
</svg>
